/* XPM */
static char * submit_xpm[] = {
"48 60 790 2",
"  	c None",
". 	c #020204",
"+ 	c #010103",
"@ 	c #000001",
"# 	c #000000",
"$ 	c #010102",
"% 	c #2F2F31",
"& 	c #C0C0C0",
"* 	c #F7F7F7",
"= 	c #F6F6F6",
"- 	c #C3C3C3",
"; 	c #343434",
"> 	c #FFFFFF",
", 	c #404040",
"' 	c #D7D7D7",
") 	c #373739",
"! 	c #3A3A3C",
"~ 	c #DFDFDF",
"{ 	c #F2F2F2",
"] 	c #2B2B2D",
"^ 	c #9C9C9C",
"/ 	c #CCCCCC",
"( 	c #252525",
"_ 	c #CBCBCB",
": 	c #FAFAFA",
"< 	c #EDEDED",
"[ 	c #7E7E7E",
"} 	c #AFAFAF",
"| 	c #E6E6E6",
"1 	c #5C5C5C",
"2 	c #7C7C7D",
"3 	c #F5F5F5",
"4 	c #959596",
"5 	c #2D2D2D",
"6 	c #585858",
"7 	c #595959",
"8 	c #BDBDBD",
"9 	c #555555",
"0 	c #282828",
"a 	c #2C2C2C",
"b 	c #EBEBEB",
"c 	c #3B3B3D",
"d 	c #A1A1A2",
"e 	c #FEFEFE",
"f 	c #797979",
"g 	c #080808",
"h 	c #040404",
"i 	c #010101",
"j 	c #070707",
"k 	c #262628",
"l 	c #020202",
"m 	c #060606",
"n 	c #090909",
"o 	c #F4F4F4",
"p 	c #D9D9D9",
"q 	c #3E3E40",
"r 	c #E9E9E9",
"s 	c #333333",
"t 	c #545454",
"u 	c #5D5D5D",
"v 	c #565656",
"w 	c #B6B6B6",
"x 	c #121212",
"y 	c #0B0B0B",
"z 	c #333335",
"A 	c #C5C5C5",
"B 	c #303030",
"C 	c #5F5F5F",
"D 	c #F1F1F1",
"E 	c #919191",
"F 	c #CECECE",
"G 	c #222222",
"H 	c #696969",
"I 	c #FDFDFD",
"J 	c #626262",
"K 	c #D59E9C",
"L 	c #E5E8E6",
"M 	c #E1E3E2",
"N 	c #F1F3F2",
"O 	c #F6F7F8",
"P 	c #F8F8F8",
"Q 	c #F8F9F9",
"R 	c #F6F6F7",
"S 	c #FBFBFC",
"T 	c #7795A5",
"U 	c #838383",
"V 	c #494949",
"W 	c #3F403F",
"X 	c #353635",
"Y 	c #343534",
"Z 	c #909091",
"` 	c #3E3E3E",
" .	c #4B4B4B",
"..	c #898989",
"+.	c #D9DAD9",
"@.	c #FCFDFC",
"#.	c #B5B6B6",
"$.	c #373737",
"%.	c #4C4C4C",
"&.	c #767676",
"*.	c #C7C8C9",
"=.	c #C6C7C8",
"-.	c #3C3C3C",
";.	c #4D4D4D",
">.	c #939393",
",.	c #ECECEC",
"'.	c #5C7687",
").	c #C7C7C7",
"!.	c #5C5D5D",
"~.	c #B9B9BA",
"{.	c #D4D4D4",
"].	c #C9C9C9",
"^.	c #8A8A8A",
"/.	c #F0F0F0",
"(.	c #ABABAB",
"_.	c #B0B0B0",
":.	c #969B97",
"<.	c #434343",
"[.	c #2C2E2C",
"}.	c #A9AAA9",
"|.	c #FBFBFB",
"1.	c #D1D1D2",
"2.	c #929292",
"3.	c #A7A7A7",
"4.	c #202020",
"5.	c #868687",
"6.	c #F1F2F3",
"7.	c #DADADA",
"8.	c #2F2F2F",
"9.	c #969696",
"0.	c #A1A1A1",
"a.	c #242424",
"b.	c #5B5B5B",
"c.	c #F3F4F3",
"d.	c #D6D7D8",
"e.	c #2B2B2B",
"f.	c #E0E4E1",
"g.	c #C2C2C2",
"h.	c #181818",
"i.	c #E5E5E5",
"j.	c #F2F6F3",
"k.	c #666868",
"l.	c #1B1B1B",
"m.	c #B7B8B9",
"n.	c #DEDEDE",
"o.	c #B5B5B5",
"p.	c #8F8F8F",
"q.	c #131313",
"r.	c #858585",
"s.	c #BBBBBB",
"t.	c #999999",
"u.	c #030303",
"v.	c #C5C9C6",
"w.	c #747575",
"x.	c #262626",
"y.	c #EFF0F1",
"z.	c #E8E8E8",
"A.	c #3D3D3D",
"B.	c #424242",
"C.	c #B1B1B1",
"D.	c #646464",
"E.	c #1A1A1A",
"F.	c #E6E7E8",
"G.	c #FBFCFC",
"H.	c #E3E4E5",
"I.	c #FCFCFC",
"J.	c #F0F3F0",
"K.	c #5E5E5E",
"L.	c #0A0A0A",
"M.	c #E2E7E3",
"N.	c #151515",
"O.	c #B4B4B4",
"P.	c #8B8C8D",
"Q.	c #8E8E8F",
"R.	c #454646",
"S.	c #C1C1C1",
"T.	c #F3F4F5",
"U.	c #B9CDD9",
"V.	c #D5E1E9",
"W.	c #F9FAFC",
"X.	c #252626",
"Y.	c #777777",
"Z.	c #D8D8D8",
"`.	c #A2A2A2",
" +	c #323232",
".+	c #6F6F6F",
"++	c #5A5A5A",
"@+	c #353535",
"#+	c #B2B6B3",
"$+	c #D8E0EA",
"%+	c #4C77B4",
"&+	c #7E9EC9",
"*+	c #F5F6F7",
"=+	c #F1F5F2",
"-+	c #A5A5A5",
";+	c #E5EAE6",
">+	c #C9CACB",
",+	c #1D1D1D",
"'+	c #F9FAFA",
")+	c #9A9B9C",
"!+	c #BABBBC",
"~+	c #A8BCD7",
"{+	c #08459A",
"]+	c #4874B1",
"^+	c #DEE4EC",
"/+	c #212121",
"(+	c #EAEAEA",
"_+	c #EFEFEF",
":+	c #505050",
"<+	c #484A48",
"[+	c #7E7E7F",
"}+	c #1F201F",
"|+	c #E7EBE8",
"1+	c #ECEDED",
"2+	c #363636",
"3+	c #6B6B6B",
"4+	c #C1D1DB",
"5+	c #144F9F",
"6+	c #1750A0",
"7+	c #5E85BB",
"8+	c #F5F7FB",
"9+	c #D3D3D3",
"0+	c #737373",
"a+	c #EAEBEB",
"b+	c #FDFDFE",
"c+	c #A6AAA6",
"d+	c #E5E6E7",
"e+	c #F2F3F2",
"f+	c #B9BBBA",
"g+	c #B2B2B2",
"h+	c #A2A3A5",
"i+	c #8D8E8F",
"j+	c #FDFEFE",
"k+	c #707171",
"l+	c #FBFCFD",
"m+	c #86A7C7",
"n+	c #134E9E",
"o+	c #2058A4",
"p+	c #2057A3",
"q+	c #CBD8E9",
"r+	c #B8B9BA",
"s+	c #454546",
"t+	c #919192",
"u+	c #939394",
"v+	c #4C4C4D",
"w+	c #E4E4E4",
"x+	c #AEAEAE",
"y+	c #969796",
"z+	c #424543",
"A+	c #BABABA",
"B+	c #D5D5D5",
"C+	c #171717",
"D+	c #8B8B8B",
"E+	c #272727",
"F+	c #979999",
"G+	c #F7F9F7",
"H+	c #7F7F7F",
"I+	c #373838",
"J+	c #B2CBD5",
"K+	c #245BA6",
"L+	c #1D56A3",
"M+	c #2159A5",
"N+	c #CAD7E9",
"O+	c #828383",
"P+	c #454545",
"Q+	c #4E4F4F",
"R+	c #7A7A7A",
"S+	c #C7C8C8",
"T+	c #9EA19E",
"U+	c #4C514D",
"V+	c #545856",
"W+	c #6D6D6D",
"X+	c #AAAAAA",
"Y+	c #F3F3F3",
"Z+	c #BABBBB",
"`+	c #4B4E4C",
" @	c #515652",
".@	c #5D5F5E",
"+@	c #9B9B9B",
"@@	c #EAEBEC",
"#@	c #FCFCFD",
"$@	c #C9CCCC",
"%@	c #575C58",
"&@	c #616262",
"*@	c #9D9E9D",
"=@	c #E8ECE9",
"-@	c #ECF1F2",
";@	c #8BA7CF",
">@	c #225AA4",
",@	c #1E56A3",
"'@	c #1751A0",
")@	c #5881B9",
"!@	c #F5F6F8",
"~@	c #F8FAF9",
"{@	c #F3F3F4",
"]@	c #FCFDFD",
"^@	c #F7FAF8",
"/@	c #F4F8F5",
"(@	c #F6F8F6",
"_@	c #F4F5F4",
":@	c #F9FAF9",
"<@	c #FAFBFA",
"[@	c #FBFCFB",
"}@	c #E9F0F2",
"|@	c #ABBED8",
"1@	c #4C79B2",
"2@	c #1952A1",
"3@	c #1E57A3",
"4@	c #1752A1",
"5@	c #455D7E",
"6@	c #CEBAA1",
"7@	c #FEFDFC",
"8@	c #D6DFE3",
"9@	c #A8BDD8",
"0@	c #DEEBE4",
"a@	c #F7F8FB",
"b@	c #F4F5F8",
"c@	c #C5D9DB",
"d@	c #82A0C8",
"e@	c #3E71AA",
"f@	c #1851A1",
"g@	c #1953A1",
"h@	c #1751A1",
"i@	c #20549B",
"j@	c #606671",
"k@	c #DD8B1E",
"l@	c #F7A12F",
"m@	c #FDF0DE",
"n@	c #E7F2EA",
"o@	c #8BA8CB",
"p@	c #6087BB",
"q@	c #6C91BA",
"r@	c #9FB6D5",
"s@	c #BECEE4",
"t@	c #DAE3EE",
"u@	c #F4F5F5",
"v@	c #EDF0F3",
"w@	c #D1DCEB",
"x@	c #B7C8E1",
"y@	c #8BA7CC",
"z@	c #557FB8",
"A@	c #2B60A8",
"B@	c #114C9E",
"C@	c #154FA0",
"D@	c #1852A1",
"E@	c #265CA6",
"F@	c #718BAD",
"G@	c #CF8F3A",
"H@	c #F6930F",
"I@	c #F69513",
"J@	c #F7991C",
"K@	c #FCE4C4",
"L@	c #EAEEF4",
"M@	c #BACAE1",
"N@	c #7A9BC7",
"O@	c #4673B2",
"P@	c #3466AB",
"Q@	c #3D6DAF",
"R@	c #537DB8",
"S@	c #6289BE",
"T@	c #7194C4",
"U@	c #85A3CC",
"V@	c #94AFD1",
"W@	c #ACBED6",
"X@	c #A2B9CF",
"Y@	c #91ADD0",
"Z@	c #7E9DC9",
"`@	c #6E91C2",
" #	c #6087BD",
".#	c #4774B3",
"+#	c #3164AA",
"@#	c #1F56A3",
"##	c #154F9F",
"$#	c #124D9E",
"%#	c #124E9F",
"&#	c #3469A7",
"*#	c #688DBF",
"=#	c #9FB5D5",
"-#	c #E2DDD7",
";#	c #F2AF55",
">#	c #F69614",
",#	c #F69512",
"'#	c #F7A02B",
")#	c #FDEED9",
"!#	c #E9EEF5",
"~#	c #D0DBEB",
"{#	c #AABFD3",
"]#	c #7194C2",
"^#	c #3868AD",
"/#	c #255DA3",
"(#	c #1C54A1",
"_#	c #1A52A1",
":#	c #124C9E",
"<#	c #1650A0",
"[#	c #104C9E",
"}#	c #0E4A9D",
"|#	c #104C9D",
"1#	c #134D9E",
"2#	c #3668AC",
"3#	c #4F7AB6",
"4#	c #698DC0",
"5#	c #98B1D2",
"6#	c #C6D3E6",
"7#	c #E0EAED",
"8#	c #FAF5ED",
"9#	c #FBDDB5",
"0#	c #F7A83E",
"a#	c #F0930F",
"b#	c #EFC582",
"c#	c #FCF0E0",
"d#	c #FEFAF4",
"e#	c #F7F8F9",
"f#	c #E7F0E9",
"g#	c #D0DDE7",
"h#	c #C3D1E6",
"i#	c #B8C9E1",
"j#	c #A6BCDA",
"k#	c #9EB5D5",
"l#	c #92ABCE",
"m#	c #91ABCD",
"n#	c #95AED0",
"o#	c #A3BAD9",
"p#	c #B5C7E0",
"q#	c #BDCDE3",
"r#	c #C6D4E7",
"s#	c #DAE4EF",
"t#	c #F0F2F4",
"u#	c #FDF4E8",
"v#	c #FBD6A4",
"w#	c #F8AC48",
"x#	c #F69410",
"y#	c #F59513",
"z#	c #F19614",
"A#	c #809524",
"B#	c #73B777",
"C#	c #F8F8F9",
"D#	c #FDF3E5",
"E#	c #FAD098",
"F#	c #F9CA8A",
"G#	c #FBDAAF",
"H#	c #FCEAD0",
"I#	c #FEFCFA",
"J#	c #FDF3E6",
"K#	c #FCE6C9",
"L#	c #FAD19B",
"M#	c #F8B356",
"N#	c #F69C21",
"O#	c #F6930D",
"P#	c #F6930E",
"Q#	c #BD971F",
"R#	c #45952E",
"S#	c #14922E",
"T#	c #1F9638",
"U#	c #C9E6CF",
"V#	c #FEFBF8",
"W#	c #FCECD5",
"X#	c #FACC8F",
"Y#	c #F8B254",
"Z#	c #F8AD49",
"`#	c #F8B964",
" $	c #FAC682",
".$	c #FAD5A4",
"+$	c #FBE2C1",
"@$	c #FDECD5",
"#$	c #FDEFDB",
"$$	c #FDF4E7",
"%$	c #FDF5E9",
"&$	c #FDF6ED",
"*$	c #FDF7EE",
"=$	c #FDF5EB",
"-$	c #FDF5EA",
";$	c #FDF0DF",
">$	c #FDEDD9",
",$	c #FDEBD2",
"'$	c #FBDDB6",
")$	c #FAD099",
"!$	c #F9C379",
"~$	c #F7A435",
"{$	c #F79A1E",
"]$	c #F69411",
"^$	c #F6940F",
"/$	c #F69615",
"($	c #F7A231",
"_$	c #F9BE6F",
":$	c #B7BC8B",
"<$	c #319939",
"[$	c #12922E",
"}$	c #1D9536",
"|$	c #C7E5CE",
"1$	c #FEF8F1",
"2$	c #F9CA8B",
"3$	c #F8B55B",
"4$	c #F6A12D",
"5$	c #F69616",
"6$	c #F79B20",
"7$	c #F79E28",
"8$	c #F8A536",
"9$	c #F8A638",
"0$	c #F8A73C",
"a$	c #F7AB46",
"b$	c #F7AE4C",
"c$	c #F8A83F",
"d$	c #F8A83E",
"e$	c #F6910A",
"f$	c #F6920C",
"g$	c #F69717",
"h$	c #F69A1E",
"i$	c #F8AB46",
"j$	c #F9C177",
"k$	c #FBDEB6",
"l$	c #F3ECDE",
"m$	c #B0D7B8",
"n$	c #26914D",
"o$	c #10912C",
"p$	c #49A95D",
"q$	c #EDF4EF",
"r$	c #FCEAD3",
"s$	c #FBDEB5",
"t$	c #FAD096",
"u$	c #F8C075",
"v$	c #F8B761",
"w$	c #F8AF4D",
"x$	c #F8A940",
"y$	c #F7A334",
"z$	c #F79D26",
"A$	c #F79819",
"B$	c #F6991C",
"C$	c #F69D26",
"D$	c #F7A230",
"E$	c #F8A83D",
"F$	c #F8AB45",
"G$	c #F8BE70",
"H$	c #FACD8F",
"I$	c #FBDAAE",
"J$	c #FCE7CC",
"K$	c #FDF8F2",
"L$	c #F7F8F8",
"M$	c #B4CED0",
"N$	c #509F79",
"O$	c #0E8F2A",
"P$	c #11912D",
"Q$	c #32832C",
"R$	c #C7AA94",
"S$	c #CBE7D1",
"T$	c #B9DBC0",
"U$	c #D8EDDC",
"V$	c #F4F7F6",
"W$	c #FEFDFB",
"X$	c #FEFBF7",
"Y$	c #FEF7EE",
"Z$	c #FEF6EB",
"`$	c #FEF4E8",
" %	c #FEF4E7",
".%	c #FEF5E9",
"+%	c #FEF7ED",
"@%	c #FEF8F0",
"#%	c #FEF9F2",
"$%	c #FEFAF5",
"%%	c #EBF3EE",
"&%	c #CCE6D1",
"*%	c #8BC898",
"=%	c #3BA351",
"-%	c #179036",
";%	c #1B8F2F",
">%	c #586B24",
",%	c #C8250E",
"'%	c #E6382A",
")%	c #FCEBE0",
"!%	c #F9FCFA",
"~%	c #D2E7D6",
"{%	c #8CCA99",
"]%	c #6BB87C",
"^%	c #84B7A9",
"/%	c #D7E8DB",
"(%	c #E8F4EB",
"_%	c #EEF7F0",
":%	c #F8FAF8",
"<%	c #F5F9F6",
"[%	c #ECF6EE",
"}%	c #E6F3E9",
"|%	c #CEE3D3",
"1%	c #9FCBB5",
"2%	c #7AB996",
"3%	c #3EA354",
"4%	c #23983B",
"5%	c #159330",
"6%	c #10902C",
"7%	c #14922F",
"8%	c #22983B",
"9%	c #5AA45D",
"0%	c #9E542A",
"a%	c #D81B07",
"b%	c #E31405",
"c%	c #E41F14",
"d%	c #F9CBC0",
"e%	c #DEEFE1",
"f%	c #9CCFA7",
"g%	c #4FA274",
"h%	c #339C4E",
"i%	c #319F48",
"j%	c #42A656",
"k%	c #64B376",
"l%	c #7ABD88",
"m%	c #98CFA3",
"n%	c #A3D4AD",
"o%	c #ACC7D2",
"p%	c #B3D0CD",
"q%	c #B7DDBF",
"r%	c #AFC7D6",
"s%	c #ABCFC5",
"t%	c #9FD2A9",
"u%	c #90CA9B",
"v%	c #79BA86",
"w%	c #5CB16E",
"x%	c #3CA451",
"y%	c #2F9E47",
"z%	c #1C9636",
"A%	c #0D8E29",
"B%	c #0F902B",
"C%	c #0B8D27",
"D%	c #1E9738",
"E%	c #48AA5D",
"F%	c #8EC799",
"G%	c #D0E5CE",
"H%	c #ED746A",
"I%	c #E3140A",
"J%	c #E52119",
"K%	c #F9CFCC",
"L%	c #CAE2D3",
"M%	c #9FC5BE",
"N%	c #72BA81",
"O%	c #4AA95E",
"P%	c #339F49",
"Q%	c #24983C",
"R%	c #16912F",
"S%	c #0C8D28",
"T%	c #0B8D26",
"U%	c #088B22",
"V%	c #078A23",
"W%	c #0A8C25",
"X%	c #0D8F29",
"Y%	c #179331",
"Z%	c #279B40",
"`%	c #299648",
" &	c #3E9F5C",
".&	c #62B374",
"+&	c #8ECA9B",
"@&	c #BCDFC4",
"#&	c #E9EFEA",
"$&	c #FAF6F5",
"%&	c #F6BBB8",
"&&	c #E9483F",
"*&	c #E21005",
"=&	c #E21304",
"-&	c #E20E04",
";&	c #F0807A",
">&	c #F7E6E5",
",&	c #FCEDEC",
"'&	c #FAFBFB",
")&	c #EFF7F1",
"!&	c #E5F3E8",
"~&	c #DCEDDF",
"{&	c #CDE2D1",
"]&	c #B2D8BA",
"^&	c #9CD1A8",
"/&	c #8CC998",
"(&	c #82B6A6",
"_&	c #7DAAB3",
":&	c #7FB0AD",
"<&	c #88C795",
"[&	c #9BD0A6",
"}&	c #ADD7B6",
"|&	c #C1DBC8",
"1&	c #D9EADC",
"2&	c #E1EFE8",
"3&	c #EBF3F1",
"4&	c #F6F9F7",
"5&	c #FDFAFA",
"6&	c #FDEDE1",
"7&	c #F5AEAB",
"8&	c #EB554D",
"9&	c #E41E14",
"0&	c #E21204",
"a&	c #E21104",
"b&	c #E41A0F",
"c&	c #EF7E76",
"d&	c #FCEAE9",
"e&	c #FADCDB",
"f&	c #F3A39E",
"g&	c #F2928A",
"h&	c #F7BEB9",
"i&	c #FCEDE9",
"j&	c #FDF6F5",
"k&	c #FEFBFB",
"l&	c #FEFEFD",
"m&	c #FEF8F8",
"n&	c #FDF3F2",
"o&	c #FBE6E1",
"p&	c #F4A7A2",
"q&	c #EE736A",
"r&	c #E9462F",
"s&	c #E3180B",
"t&	c #E21003",
"u&	c #E31209",
"v&	c #E9463B",
"w&	c #F6B5A7",
"x&	c #FEFAF8",
"y&	c #F9CEC0",
"z&	c #EE7767",
"A&	c #E84136",
"B&	c #E9453F",
"C&	c #EE706A",
"D&	c #F39A92",
"E&	c #F9C9B4",
"F&	c #F8CAC4",
"G&	c #FAE0DE",
"H&	c #F9EFEE",
"I&	c #FBE9E7",
"J&	c #FAD9D7",
"K&	c #F7BDBA",
"L&	c #F5B0AB",
"M&	c #F18F86",
"N&	c #EB5E57",
"O&	c #E7342C",
"P&	c #E20F03",
"Q&	c #E52918",
"R&	c #ED6750",
"S&	c #F6B2AE",
"T&	c #FEFBF9",
"U&	c #F6B8B5",
"V&	c #EF7E78",
"W&	c #E9514B",
"X&	c #E7372E",
"Y&	c #E5221A",
"Z&	c #E52116",
"`&	c #E5261E",
" *	c #E73A32",
".*	c #E9453D",
"+*	c #E94841",
"@*	c #EA4D46",
"#*	c #EB564F",
"$*	c #E94842",
"%*	c #E9433A",
"&*	c #E7382C",
"**	c #E6291C",
"=*	c #E42214",
"-*	c #E3140C",
";*	c #E31506",
">*	c #E20E03",
",*	c #E20D02",
"'*	c #E41B0E",
")*	c #E52921",
"!*	c #E84036",
"~*	c #F5ADA9",
"{*	c #FBE6E3",
"]*	c #FEF9F6",
"^*	c #FCF3F3",
"/*	c #FADCDA",
"(*	c #F8CAC5",
"_*	c #F4AAA3",
":*	c #F0817C",
"<*	c #EC655F",
"[*	c #EA4E47",
"}*	c #E73930",
"|*	c #E62C22",
"1*	c #E5261C",
"2*	c #E41E19",
"3*	c #E41D17",
"4*	c #E41A14",
"5*	c #E41C15",
"6*	c #E41F18",
"7*	c #E5221B",
"8*	c #E5281C",
"9*	c #E62E21",
"0*	c #E94B40",
"a*	c #EC615A",
"b*	c #F28E70",
"c*	c #F1908A",
"d*	c #F7C5BE",
"e*	c #FCE7E6",
"f*	c #FBF9F6",
"g*	c #FBE4E3",
"h*	c #FAD8D6",
"i*	c #F9D3D1",
"j*	c #F9CCC9",
"k*	c #F9D1CE",
"l*	c #FBE0DE",
"m*	c #FBEDED",
"n*	c #4E778B",
"o*	c #7D7D7C",
". . . . . . . . . . . . . + @ # # # # # # # # # # # # # # # # # # # @ # @ @ @ @ @ $ + + . . . . ",
". . . . . . . . . . . . + @ # # # # # # # # # # # # # # # # # # # # # # # # # # # # # # @ $ + . ",
". . . . . . . . % & * = - ; # # # # # # # # > > # # # # # # # # # # # # # # # # > > # , & # @ + ",
". . . . . . . . ' > ) ! > ~ # # # # # # # # > > # # # # # # # # # # # # # # # # # # # > > # # @ ",
". . . . . . . . { > ] . # # # > > # # > > # > > ^ * / ( # > > _ : < [ } = | 1 # > > > > > > # # ",
". . . . . . . . 2 > 3 4 5 # # > > # # > > # > > 6 7 > 8 # > > 9 0 > > 7 a > b # > > # > > # # # ",
". . . . . . . . . c d 3 e f # > > # # > > # > > g g > * # > > h i > > j # > > # > > # > > # # # ",
". . . . . . . . . . . k > { # > > l m > > # > > n j > o # > > # # > > # # > > # > > # > > # # # ",
". . . . . . . . p > q c > ' # r > s t > > # > > u v > w # > > # # > > # # > > # > > # 3 > x y # ",
". . . . . . . . z - * * A B # C b D E > > # > > ^ * F G # > > # # > > # # > > # > > # H < I J # ",
". . . . . . . . . . . . + # # # # # # # # # # # # # # # # # # # # # # # # # # # # # # # # # # $ ",
". . . . . . . . . . . . . $ @ # # # # # # # # # # # # # # # # # # # # # # # # # # # # # # @ $ . ",
"                                                                                                ",
"                                                                                                ",
"                                                                                                ",
"                                                                                                ",
"                                                                                                ",
"                                                                                                ",
"                                                                                                ",
"    K K K K K K K K K K K K K K K K K K K K K K K K K K K K K K K K K K K K K K K K K K K K     ",
"  K e e > > e : L M N e > O P P I > > > > > Q R P I e e e e e S R P : e e e e e e > > > > > T   ",
"  K e > e p U V W X Y f = Z a `  ...+.@.> > #.5 $.%.&.*.: e e =.-.` ;.>.,.e e e e > > > > > '.  ",
"  K e I ).a !.~.{.].^. ./.(.x _.:.<.[.}.|.> 1.x 2.3.9 4.5.6.e 7.8.9.0.a.b.c.e e e > > > > > '.  ",
"  K > d.e.f 3 > e e I f.: g.h.i.> j.k.l.m.e n.G o.e I p.q.r.e ~ $.s.e t.u.v.e e e > > > > > '.  ",
"  K > w.x.y.e > e e e e > g.h.i.> > z.A.B.|.n.G C.e e |.D.E.F.~ $.s.G.Z 5 H.e I.e > > > > > '.  ",
"  K J.Y K.> e > e e e e > g.h.i.> > > >.L.M.n.G C.e e e s.N.O.~ ; P.Q.R.S.I e T.U.V.W.> > > '.  ",
"  K z.X.Y.> e > e e e e > g.h.i.> > > O.# ' n.G C.e e e Z.x.`.~  +.+++@+#+I.e e $+%+&+*+e > '.  ",
"  K =+X J > e > e e e e > g.h.i.> > > -+y ;+n.G C.e e e >+,+} ~ ; 3.'+)+h.!+e e e ~+{+]+^+> '.  ",
"  K e &./+(+e > e e e I e g.h.i.> > _+:+<+: n.G C.e e S [+}+|+~ ; 3.e 1+2+3+: e e 4+5+6+7+8+'.  ",
"  K > 9+e.0+a+b+e e { c+d+g.h.i.e e+f a.f+e n./+g+e = h+a.i+e ~ ; 3.j+Z.4.k+I.e l+m+n+o+p+q+'.  ",
"  K e I r+l.s+t+} u+v+E.w+o.q.x+y+z+2+A+> > B+C+D+`.u E+F+G+e 7.a H+d I+0 7.e e J+K+L+M+p+N+'.  ",
"  K e e I ~ O+V P+Q+R+S+G.T+U+V+W+X+Y+e > > Z+`+ @.@+@@@#@e e $@%@ @&@*@=@e -@;@>@,@M+'@)@!@'.  ",
"  K e ~@I > I D < {@]@e > ^@/@(@I > > > > > Q _@/@:@e e e e e <@/@/@'+[@}@|@1@2@3@o+4@5@6@7@'.  ",
"  K e 8@9@0@a@]@e e e e > > > > > > > > > > > e e e e e e e e j+l+b@c@d@e@f@g@o+h@i@j@k@l@m@'.  ",
"  K e e n@o@p@q@r@s@t@u@e > > > > > > > > > > e e e e I.v@w@x@y@z@A@B@C@D@'@n+E@F@G@H@I@J@K@'.  ",
"  K > e > @.L@M@N@O@P@Q@R@S@T@U@V@W@W@W@W@W@X@Y@Z@`@ #.#+#@###$###5+%#o+&#*#=#-#;#I@>#,#'#)#'.  ",
"  K > e > > e > I.!#~#{#]#R@^#/#(#_#6+:#<#'@<#$#[#}#|#<#1#2@K+2#3#4#5#6#7#8#9#0#,#>#>#a#b#7@'.  ",
"  K > c#d#> e > e e e e > > e#f#g#h#i#j#k#l#m#m#m#n#o#p#q#r#s#t#I.e e u#v#w#I@x#y#>#z#A#B#C#'.  ",
"  K e D#E#F#G#H#d#e e e > > > > > > > > e e e e e e e e e e I#J#K#L#M#N#O#,#I@P#,#Q#R#S#T#U#'.  ",
"  K e e V#W#X#Y#Z#`# $.$+$@$#$D#$$%$&$*$*$=$-$J#;$>$,$'$)$!$Y#~${$]$P#^$,#/$($_$:$<$[$[$}$|$'.  ",
"  K e > e > e 1$K@2$3$4$5$6$7$8$9$0$a$b$b$c$d$8$'#6$5$P#P#P#e$f$H@g$h$i$j$k$l$m$n$o$[$[$p$q$'.  ",
"  K e e e > e > e e e V#r$s$t$u$v$w$x$y$z$z$A$5$B$C$D$E$F$M#G$H$I$J$K$e L$M$N$O$P$[$[$Q$R$> '.  ",
"  K > S$T$U$V$> e e e e > > > W$X$d#1$Y$Z$Z$`$ %.%Z$+%@%#%$%I#e e %%&%*%=%-%[$P$P$;%>%,%'%)%'.  ",
"  K > !%~%{%]%^%m$/%(%_%:%I.> > > > > > > > > e e e |.<%[%}%|%1%2%3%4%5%6%o$7%8%9%0%a%b%c%d%'.  ",
"  K e e e > e%f%g%h%i%j%k%l%m%n%o%p%q%q%q%q%r%s%t%u%v%w%x%y%z%A%6%P$B%C%D%E%F%G%H%I%b%b%J%K%'.  ",
"  K e e e > e e ]@/@L%M%N%O%P%Q%R%S%T%U%U%U%V%V%W%X%A%B%P$Y%Z%`% &.&+&@&#&$&%&&&*&=&b%-&;&e '.  ",
"  K e >&,&> e > e e e e '&)&!&~&{&]&^&/&(&_&_&_&_&:&<&[&}&|&1&2&3&4&5&6&7&8&9&0&=&a&b&c&d&> '.  ",
"  K e e&f&g&h&i&j&k&e e > > > > > > > > > > > e e e e e e l&m&n&o&p&q&r&s&t&=&=&u&v&w&x&> > '.  ",
"  K e > l&y&z&A&B&C&D&E&F&G&H&e > > > > > > > e I#I&J&K&L&M&N&O&b&t&=&=&t&P&Q&R&S&n&> > > > '.  ",
"  K e e e > T&,&U&V&W&X&Y&Z&`& *.*+*@*#*#*$*+*%*&***=*-*I%;*>*,*0&'*)*!*q&~*{*]*e > > > > > '.  ",
"  K e e > > e > e I ^*/*(*_*:*<*[*}*|*1*2*3*4*5*6*7*8*9*&*0*a*b*c*d*J&e*W$e e e e > > > > > '.  ",
"  K e e e > e > e e e e > > > > e f*g*h*h*i*j*j*k*h*h*l*m*I.e e e e e e e e e e e > > > > > n*  ",
"    T '.'.'.'.'.'.'.'.'.'.'.'.'.'.'.'.'.'.'.'.'.'.'.'.'.'.'.'.'.'.'.'.'.'.'.'.'.'.'.'.'.'.'.o*  ",
"                                                                                                ",
"                                                                                                ",
"                                                                                                ",
"                                                                                                ",
"                                                                                                ",
"                                                                                                ",
"                                                                                                "};
